<svg width="72" height="61" viewBox="0 0 72 61" version="1.1" xmlns="http://www.w3.org/2000/svg" xmlns:xlink="http://www.w3.org/1999/xlink">
<title>Group</title>
<desc>Created using Figma</desc>
<g id="Canvas" transform="translate(1685 10700)">
<g id="Group">
<g id="RE">
<use xlink:href="#path0_fill" transform="translate(-1664 -10684)" fill="#A36527"/>
</g>
<g id="Exclude">
<use xlink:href="#path1_fill" transform="translate(-1685 -10700)" fill="#A36527"/>
</g>
</g>
</g>
<defs>
<path id="path0_fill" d="M 22.752 27.08C 22.08 27.256 21.48 27.344 20.952 27.344C 20.44 27.344 19.984 27.312 19.584 27.248C 19.184 27.184 18.752 27.056 18.288 26.864C 17.84 26.688 17.416 26.48 17.016 26.24C 16.616 26 16.216 25.704 15.816 25.352C 15.08 24.76 14.408 24.12 13.8 23.432C 13.208 22.744 12.056 21.456 10.344 19.568C 8.632 17.664 7.496 16.4 6.936 15.776C 6.376 15.152 5.944 14.824 5.64 14.792L 5.64 14.552C 6.568 14.552 7.184 14.536 7.488 14.504C 7.808 14.456 8.144 14.384 8.496 14.288C 8.848 14.176 9.144 14.032 9.384 13.856C 10.328 13.248 10.8 12.24 10.8 10.832C 10.8 9.664 10.536 8.728 10.008 8.024C 9.496 7.32 8.768 6.96 7.824 6.944L 4.848 6.944L 4.848 21.248C 4.848 21.648 4.992 22 5.28 22.304C 5.584 22.608 5.952 22.76 6.384 22.76L 6.672 22.76L 6.696 23L 1.44 23L 1.44 22.76L 1.752 22.76C 2.152 22.76 2.504 22.616 2.808 22.328C 3.112 22.04 3.272 21.688 3.288 21.272L 3.288 7.952C 3.272 7.536 3.112 7.184 2.808 6.896C 2.52 6.592 2.168 6.44 1.752 6.44L 1.44 6.44L 1.44 6.2L 7.92 6.2C 9.328 6.2 10.456 6.6 11.304 7.4C 12.168 8.184 12.6 9.232 12.6 10.544C 12.6 11.84 12.208 12.96 11.424 13.904C 10.64 14.832 9.68 15.296 8.544 15.296C 8.544 15.296 8.536 15.296 8.52 15.296C 9.064 15.872 9.68 16.544 10.368 17.312C 13.136 20.368 14.912 22.288 15.696 23.072C 16.48 23.856 17.168 24.496 17.76 24.992C 18.368 25.504 18.904 25.88 19.368 26.12C 20.312 26.632 21.248 26.888 22.176 26.888C 22.368 26.888 22.56 26.872 22.752 26.84L 22.752 27.08ZM 17.4082 22.76C 17.8242 22.76 18.1762 22.616 18.4642 22.328C 18.7683 22.024 18.9283 21.664 18.9442 21.248L 18.9442 7.808C 18.9442 7.424 18.7922 7.104 18.4883 6.848C 18.1842 6.576 17.8242 6.44 17.4082 6.44L 17.1203 6.44L 17.0962 6.2L 21.9683 6.2C 22.4643 6.2 23.0003 6.152 23.5763 6.056C 24.1683 5.96 24.5843 5.864 24.8242 5.768L 24.8242 8.792L 24.5843 8.792L 24.5843 8.36C 24.5843 7.976 24.4483 7.648 24.1762 7.376C 23.9202 7.104 23.6082 6.96 23.2403 6.944L 20.5043 6.944L 20.5043 14.36L 25.0642 14.36C 25.3842 14.344 25.6562 14.224 25.8802 14C 26.1042 13.776 26.2162 13.496 26.2162 13.16L 26.2162 12.824L 26.4562 12.824L 26.4562 16.616L 26.2162 16.616L 26.2162 16.256C 26.2162 15.936 26.1042 15.664 25.8802 15.44C 25.6722 15.216 25.4082 15.096 25.0883 15.08L 20.5043 15.08L 20.5043 22.256L 25.6162 22.256C 26.8002 22.256 27.7042 21.992 28.3282 21.464C 28.9522 20.936 29.4722 20.152 29.8882 19.112L 30.1282 19.112L 28.7363 23L 17.0962 23L 17.0962 22.76L 17.4082 22.76Z"/>
<path id="path1_fill" fill-rule="evenodd" d="M 72 17.1699L 71.9999 42.9258L 36.0001 61L 55.9999 42.9258L 56 17.1699L 46 8.58496L 36.0001 0L 54 8.58496L 72 17.1699ZM 18.0001 8.58496L 36.0001 0L 26.0001 8.58496L 16.0001 17.1699L 16 42.9258L 36.0001 61L 0 42.9258L 0.00012207 17.1699L 18.0001 8.58496Z"/>
</defs>
</svg>
