<svg width="59" height="63" viewBox="0 0 59 63" version="1.1" xmlns="http://www.w3.org/2000/svg" xmlns:xlink="http://www.w3.org/1999/xlink">
<title>codepen</title>
<desc>Created using Figma</desc>
<g id="Canvas" transform="translate(2075 8262)">
<g id="codepen">
<g id="Vector">
<use xlink:href="#path0_fill" transform="translate(-2075 -8262)" fill="#FBFEF9"/>
</g>
</g>
</g>
<defs>
<path id="path0_fill" d="M 57.8804 19.651L 30.9156 0.455662C 29.9952 -0.149116 29.013 -0.154653 28.0842 0.455662L 1.11938 19.651C 0.42798 20.1431 0 21.0222 0 21.901L 0 41.0962C 0 41.9751 0.42798 42.8541 1.1195 43.3463L 28.0843 62.5443C 29.0047 63.1491 29.9869 63.1547 30.9157 62.5443L 57.8805 43.3463C 58.5719 42.8542 59 41.9751 59 41.0962L 59 21.901C 58.9999 21.0222 58.5719 20.1431 57.8804 19.651ZM 32.0351 7.76799L 51.8883 21.901L 43.0318 28.2292L 32.0351 20.3892L 32.0351 7.76799ZM 26.9648 7.76799L 26.9648 20.3892L 15.9681 28.2292L 7.11156 21.901L 26.9648 7.76799ZM 5.0703 26.9635L 11.4247 31.4986L 5.0703 36.0338L 5.0703 26.9635ZM 26.9648 55.2293L 7.11156 41.0963L 15.9681 34.7681L 26.9648 42.6081L 26.9648 55.2293ZM 29.4999 37.8971L 20.5445 31.4986L 29.4999 25.1002L 38.4554 31.4986L 29.4999 37.8971ZM 32.0351 55.2293L 32.0351 42.6081L 43.0318 34.7681L 51.8883 41.0963L 32.0351 55.2293ZM 53.9296 36.0338L 47.5752 31.4986L 53.9296 26.9635L 53.9296 36.0338Z"/>
</defs>
</svg>
