<svg width="59" height="55" viewBox="0 0 59 55" version="1.1" xmlns="http://www.w3.org/2000/svg" xmlns:xlink="http://www.w3.org/1999/xlink">
<title>facebook-square</title>
<desc>Created using Figma</desc>
<g id="Canvas" transform="translate(2075 8347)">
<g id="facebook-square">
<g id="Vector">
<use xlink:href="#path0_fill" transform="translate(-2075 -8347)" fill="#FBFEF9"/>
</g>
</g>
</g>
<defs>
<path id="path0_fill" d="M 58.982 5.8656L 58.982 48.88C 58.982 52.1183 56.1514 54.7456 52.6625 54.7456L 41.4322 54.7456L 41.4322 33.0918L 49.4106 33.0918L 50.556 24.8311L 41.4322 24.8311L 41.4322 19.552C 41.4322 17.1569 42.1432 15.5316 45.8427 15.5316L 50.556 15.5316L 50.556 8.15074C 49.7397 8.05298 46.9486 7.8208 43.6835 7.8208C 36.8901 7.8208 32.2295 11.6701 32.2295 18.7455L 32.2295 24.8433L 24.2247 24.8433L 24.2247 33.104L 32.2426 33.104L 32.2426 54.7456L 6.3195 54.7456C 2.83061 54.7456 0 52.1183 0 48.88L 0 5.8656C 0 2.6273 2.83061 0 6.3195 0L 52.6625 0C 56.1514 0 58.982 2.6273 58.982 5.8656Z"/>
</defs>
</svg>
