<svg width="59" height="59" viewBox="0 0 59 59" version="1.1" xmlns="http://www.w3.org/2000/svg" xmlns:xlink="http://www.w3.org/1999/xlink">
<title>github</title>
<desc>Created using Figma</desc>
<g id="Canvas" transform="translate(1972 8258)">
<g id="github">
<g id="Vector">
<use xlink:href="#path0_fill" transform="translate(-1972 -8258)" fill="#FBFEF9"/>
</g>
</g>
</g>
<defs>
<path id="path0_fill" d="M 19.7341 47.5067C 19.7341 47.7507 19.4605 47.9459 19.1155 47.9459C 18.723 47.9825 18.4494 47.7873 18.4494 47.5067C 18.4494 47.2627 18.723 47.0675 19.0679 47.0675C 19.4248 47.0309 19.7341 47.2261 19.7341 47.5067ZM 16.0347 46.9577C 15.9514 47.2017 16.1893 47.4823 16.5462 47.5555C 16.8554 47.6775 17.2123 47.5555 17.2837 47.3115C 17.355 47.0675 17.129 46.7869 16.7722 46.6771C 16.4629 46.5917 16.1179 46.7137 16.0347 46.9577ZM 21.2923 46.7503C 20.9474 46.8357 20.7095 47.0675 20.7452 47.3481C 20.7808 47.5921 21.0901 47.7507 21.447 47.6653C 21.7919 47.5799 22.0298 47.3481 21.9942 47.1041C 21.9585 46.8723 21.6373 46.7137 21.2923 46.7503ZM 29.1194 0C 12.6208 0 0 12.8466 0 29.7679C 0 43.2977 8.30282 54.8755 20.1623 58.9503C 21.6849 59.2309 22.2202 58.2671 22.2202 57.4741C 22.2202 56.7177 22.1845 52.5453 22.1845 49.9833C 22.1845 49.9833 13.8579 51.8133 12.1093 46.3477C 12.1093 46.3477 10.7532 42.7975 8.80242 41.8825C 8.80242 41.8825 6.07843 39.9671 8.99274 40.0037C 8.99274 40.0037 11.9546 40.2477 13.5843 43.1513C 16.1893 47.8605 20.5548 46.5063 22.2558 45.7011C 22.5294 43.7491 23.3026 42.3949 24.1591 41.5897C 17.5097 40.8333 10.8008 39.8451 10.8008 28.1087C 10.8008 24.7538 11.7048 23.0702 13.6081 20.923C 13.2988 20.13 12.2877 16.8604 13.9173 12.6392C 16.4034 11.8462 22.125 15.9332 22.125 15.9332C 24.504 15.25 27.0615 14.8962 29.5952 14.8962C 32.1288 14.8962 34.6863 15.25 37.0653 15.9332C 37.0653 15.9332 42.7869 11.834 45.273 12.6392C 46.9026 16.8726 45.8915 20.13 45.5823 20.923C 47.4855 23.0824 48.6512 24.766 48.6512 28.1087C 48.6512 39.8817 41.645 40.8211 34.9956 41.5897C 36.0899 42.5535 37.0177 44.3835 37.0177 47.2505C 37.0177 51.3619 36.9821 56.4493 36.9821 57.4497C 36.9821 58.2427 37.5292 59.2065 39.0399 58.9259C 50.9351 54.8755 59 43.2977 59 29.7679C 59 12.8466 45.6179 0 29.1194 0ZM 11.5621 42.0777C 11.4075 42.1997 11.4431 42.4803 11.6454 42.7121C 11.8357 42.9073 12.1093 42.9927 12.2639 42.8341C 12.4185 42.7121 12.3829 42.4315 12.1806 42.1997C 11.9903 42.0045 11.7167 41.9191 11.5621 42.0777ZM 10.2774 41.0895C 10.1942 41.2481 10.3131 41.4433 10.551 41.5653C 10.7413 41.6873 10.9792 41.6507 11.0625 41.4799C 11.1458 41.3213 11.0268 41.1261 10.7889 41.0041C 10.551 40.9309 10.3607 40.9675 10.2774 41.0895ZM 14.1315 45.4327C 13.9411 45.5913 14.0125 45.9573 14.2861 46.1891C 14.5597 46.4697 14.9046 46.5063 15.0593 46.3111C 15.2139 46.1525 15.1425 45.7865 14.9046 45.5547C 14.6429 45.2741 14.2861 45.2375 14.1315 45.4327ZM 12.7754 43.6393C 12.5851 43.7613 12.5851 44.0785 12.7754 44.3591C 12.9657 44.6397 13.2869 44.7617 13.4415 44.6397C 13.6319 44.4811 13.6319 44.1639 13.4415 43.8833C 13.275 43.6027 12.9657 43.4807 12.7754 43.6393Z"/>
</defs>
</svg>
