<svg width="73" height="70" viewBox="0 0 73 70" version="1.1" xmlns="http://www.w3.org/2000/svg" xmlns:xlink="http://www.w3.org/1999/xlink">
<title>node-js</title>
<desc>Created using Figma</desc>
<g id="Canvas" transform="translate(1890 8726)">
<g id="node-js">
<g id="Vector">
<use xlink:href="#path0_fill" transform="translate(-1890 -8726)" fill="#0C6291"/>
</g>
</g>
</g>
<defs>
<path id="path0_fill" d="M 36.4837 70C 35.389 70 34.278 69.75 33.314 69.2777L 23.2332 64.2078C 21.7301 63.4855 22.4653 63.2354 22.9555 63.0965C 24.9651 62.4993 25.3735 62.3742 27.5139 61.3325C 27.7426 61.2214 28.0367 61.263 28.2654 61.388L 36.0098 65.2912C 36.2876 65.4301 36.6797 65.4301 36.9411 65.2912L 67.1182 50.4842C 67.3959 50.3453 67.5756 50.0675 67.5756 49.7897L 67.5756 20.1756C 67.5756 19.8839 67.3959 19.62 67.1018 19.4672L 36.9411 4.67408C 36.6634 4.53517 36.2876 4.53517 36.0098 4.67408L 5.86549 19.4811C 5.5714 19.62 5.39167 19.8978 5.39167 20.1895L 5.39167 49.7897C 5.39167 50.0675 5.5714 50.3453 5.86549 50.4703L 14.1327 54.5262C 18.6258 56.4292 21.3706 54.1929 21.3706 51.9288L 21.3706 22.7036C 21.3706 22.2869 21.7628 21.9675 22.2529 21.9675L 26.0761 21.9675C 26.5499 21.9675 26.9584 22.2869 26.9584 22.7036L 26.9584 51.9427C 26.9584 57.0265 23.6907 59.9434 18.0213 59.9434C 16.2731 59.9434 14.9006 59.9434 11.0774 58.3322L 3.16965 54.4568C 1.20904 53.4984 -1.94769e-09 51.7065 -1.94769e-09 49.7758L -1.94769e-09 20.1756C -1.94769e-09 18.2588 1.20904 16.453 3.16965 15.4946L 33.314 0.687568C 35.2256 -0.229189 37.7581 -0.229189 39.6533 0.687568L 69.8304 15.5085C 71.791 16.4669 73 18.2588 73 20.1895L 73 49.7897C 73 51.7065 71.791 53.4984 69.8304 54.4707L 39.6533 69.2777C 38.6893 69.75 37.5947 70 36.4837 70ZM 60.8442 40.8165C 60.8442 35.2743 56.4329 33.802 47.169 32.7602C 37.7907 31.7045 36.8431 31.1628 36.8431 29.3015C 36.8431 27.7597 37.6437 25.7039 44.5875 25.7039C 50.7798 25.7039 53.0671 26.8429 54.0148 30.3988C 54.0965 30.7322 54.4559 30.9822 54.8644 30.9822L 58.7856 30.9822C 59.0307 30.9822 59.2594 30.8989 59.4228 30.7461C 59.5862 30.5933 59.6679 30.385 59.6515 30.1766C 59.047 24.051 54.2598 21.2035 44.5875 21.2035C 35.9772 21.2035 30.8469 24.2871 30.8469 29.4682C 30.8469 35.0799 35.9608 36.6356 44.2117 37.3301C 54.0965 38.1496 54.8644 39.3859 54.8644 41.0388C 54.8644 43.9002 52.1522 45.1225 45.7966 45.1225C 37.8071 45.1225 36.0589 43.414 35.4707 40.0387C 35.4053 39.6775 35.0459 39.4136 34.6047 39.4136L 30.6999 39.4136C 30.2097 39.4136 29.8339 39.747 29.8339 40.1498C 29.8339 44.4697 32.5951 49.623 45.8129 49.623C 55.3545 49.6091 60.8442 46.4004 60.8442 40.8165Z"/>
</defs>
</svg>
