<svg width="59" height="55" viewBox="0 0 59 55" version="1.1" xmlns="http://www.w3.org/2000/svg" xmlns:xlink="http://www.w3.org/1999/xlink">
<title>linkedin</title>
<desc>Created using Figma</desc>
<g id="Canvas" transform="translate(1869 8347)">
<g id="linkedin">
<g id="Vector">
<use xlink:href="#path0_fill" transform="translate(-1869 -8347)" fill="#FBFEF9"/>
</g>
</g>
</g>
<defs>
<path id="path0_fill" d="M 54.769 0L 4.19983 0C 1.88268 0 0 1.7719 0 3.94706L 0 50.7986C 0 52.9737 1.88268 54.7456 4.19983 54.7456L 54.769 54.7456C 57.0861 54.7456 58.982 52.9737 58.982 50.7986L 58.982 3.94706C 58.982 1.7719 57.0861 0 54.769 0ZM 17.8263 46.9248L 9.08428 46.9248L 9.08428 20.7984L 17.8394 20.7984L 17.8394 46.9248L 17.8263 46.9248ZM 13.4553 17.2302C 10.651 17.2302 8.3865 15.1161 8.3865 12.5255C 8.3865 9.93486 10.651 7.8208 13.4553 7.8208C 16.2464 7.8208 18.524 9.93486 18.524 12.5255C 18.524 15.1284 16.2595 17.2302 13.4553 17.2302ZM 50.5955 46.9248L 41.8535 46.9248L 41.8535 34.216C 41.8535 31.1855 41.7877 27.2873 37.3114 27.2873C 32.7561 27.2873 32.0583 30.5867 32.0583 33.9961L 32.0583 46.9248L 23.3163 46.9248L 23.3163 20.7984L 31.7028 20.7984L 31.7028 24.3667L 31.8213 24.3667C 32.9931 22.3137 35.85 20.1508 40.1025 20.1508C 48.9498 20.1508 50.5955 25.5643 50.5955 32.603L 50.5955 46.9248Z"/>
</defs>
</svg>
