<svg width="151" height="79" viewBox="0 0 151 79" version="1.1" xmlns="http://www.w3.org/2000/svg" xmlns:xlink="http://www.w3.org/1999/xlink">
<title>node</title>
<desc>Created using Figma</desc>
<g id="Canvas" transform="translate(2017 8612)">
<g id="node">
<g id="Vector">
<use xlink:href="#path0_fill" transform="translate(-2017 -8612)" fill="#0C6291"/>
</g>
</g>
</g>
<defs>
<path id="path0_fill" d="M 74.627 79C 74.1316 79 73.6361 78.8791 73.1878 78.6775L 68.6578 76.38C 67.9736 76.0575 68.3039 75.9366 68.5398 75.8762C 69.4364 75.6142 69.6252 75.5537 70.5925 75.07C 70.6869 75.0297 70.8284 75.0499 70.9228 75.0902L 74.4147 76.8637C 74.5327 76.9242 74.7214 76.9242 74.8394 76.8637L 88.4766 70.1323C 88.5945 70.0719 88.6889 69.9509 88.6889 69.8099L 88.6889 56.3673C 88.6889 56.2262 88.6181 56.1053 88.4766 56.0448L 74.8394 49.3336C 74.7214 49.2731 74.5563 49.2731 74.4147 49.3336L 60.7775 56.0448C 60.6359 56.1053 60.5652 56.2464 60.5652 56.3673L 60.5652 69.8099C 60.5652 69.9308 60.6595 70.0517 60.7775 70.1122L 64.5053 71.9462C 66.5344 72.8128 67.7848 71.7849 67.7848 70.7773L 67.7848 57.4959C 67.7848 57.3145 67.95 57.1533 68.1859 57.1533L 69.9083 57.1533C 70.1206 57.1533 70.3094 57.2943 70.3094 57.4959L 70.3094 70.7773C 70.3094 73.0949 68.8466 74.4049 66.2748 74.4049C 65.4962 74.4049 64.8592 74.4049 63.1369 73.6794L 59.5506 71.926C 58.6777 71.4826 58.1114 70.6765 58.1114 69.8099L 58.1114 56.3673C 58.1114 55.5007 58.6541 54.6744 59.5506 54.2511L 73.1878 47.5197C 74.0608 47.0965 75.1933 47.0965 76.0427 47.5197L 89.6798 54.2511C 90.5528 54.6945 91.1191 55.5007 91.1191 56.3673L 91.1191 69.8099C 91.1191 70.6765 90.5764 71.5028 89.6798 71.926L 76.0427 78.6574C 75.6416 78.8791 75.1461 79 74.627 79ZM 85.6453 65.7388C 85.6453 63.2196 83.6634 62.5545 79.4637 62.0708C 75.2169 61.5871 74.7922 61.3453 74.7922 60.4988C 74.7922 59.7934 75.1461 58.8663 78.2841 58.8663C 81.0917 58.8663 82.1298 59.3903 82.5545 61.0027C 82.6017 61.1639 82.7433 61.2646 82.932 61.2646L 84.7016 61.2646C 84.8195 61.2646 84.9139 61.2243 84.9847 61.1639C 85.0555 61.0833 85.1027 61.0027 85.0791 60.9019C 84.7959 58.1207 82.6489 56.8308 78.2841 56.8308C 74.3911 56.8308 72.0789 58.2416 72.0789 60.5794C 72.0789 63.139 74.3911 63.8242 78.1189 64.1466C 82.5781 64.5296 82.932 65.0737 82.932 65.8194C 82.932 67.1294 81.7052 67.6736 78.8267 67.6736C 75.2169 67.6736 74.4147 66.9077 74.1552 65.376C 74.1316 65.2148 73.9664 65.0939 73.7541 65.0939L 71.9845 65.0939C 71.7722 65.0939 71.5834 65.235 71.5834 65.4365C 71.5834 67.3914 72.8339 69.7292 78.8031 69.7292C 83.168 69.7292 85.6453 68.2782 85.6453 65.7388ZM 98.5039 55.6417C 98.5039 56.8711 97.3242 57.8788 95.885 57.8788C 94.4458 57.8788 93.2661 56.8711 93.2661 55.6417C 93.2661 54.372 94.493 53.4047 95.885 53.4047C 97.3006 53.3845 98.5039 54.372 98.5039 55.6417ZM 98.0792 55.6417C 98.0792 54.5937 97.0883 53.7674 95.8614 53.7674C 94.6581 53.7674 93.6672 54.5937 93.6672 55.6417C 93.6672 56.6897 94.6581 57.5362 95.8614 57.5362C 97.0883 57.516 98.0792 56.6696 98.0792 55.6417ZM 97.0175 56.8913L 96.4041 56.8913C 96.3805 56.7703 96.2861 56.1254 96.2861 56.1053C 96.2389 55.9642 96.1917 55.8836 95.9794 55.8836L 95.4603 55.8836L 95.4603 56.8913L 94.8941 56.8913L 94.8941 54.372L 95.9086 54.372C 96.2625 54.372 96.9467 54.372 96.9467 55.0371C 96.9467 55.5007 96.5928 55.6014 96.3805 55.6619C 96.7816 55.682 96.8052 55.9037 96.8759 56.2262C 96.8995 56.4277 96.9467 56.7703 97.0175 56.8913ZM 96.3569 55.1177C 96.3569 54.7751 96.0738 54.7751 95.9322 54.7751L 95.4603 54.7751L 95.4603 55.4805L 95.9086 55.4805C 96.2861 55.4805 96.3569 55.2588 96.3569 55.1177ZM 32.3942 26.3986C 32.3942 25.8544 32.0639 25.3707 31.5213 25.1087L 17.0583 17.9944C 16.8223 17.8735 16.5392 17.813 16.2561 17.7929L 16.1145 17.7929C 15.8314 17.7929 15.5719 17.8735 15.3123 17.9944L 0.872969 25.1087C 0.330313 25.3707 0 25.8746 0 26.3986L 0.0235937 45.5447C 0.0235937 45.8067 0.18875 46.0485 0.448281 46.1896C 0.707812 46.3307 1.03812 46.3307 1.32125 46.1896L 9.90938 41.9775C 10.452 41.6953 10.7823 41.2116 10.7823 40.6876L 10.7823 31.7393C 10.7823 31.2153 11.1127 30.7115 11.6553 30.4495L 15.3123 28.6558C 15.5955 28.5147 15.8786 28.4542 16.1853 28.4542C 16.492 28.4542 16.7987 28.5147 17.0583 28.6558L 20.7153 30.4495C 21.258 30.7115 21.5883 31.2153 21.5883 31.7393L 21.5883 40.6876C 21.5883 41.2116 21.9186 41.7155 22.4612 41.9775L 31.0494 46.1896C 31.3089 46.3307 31.6628 46.3307 31.9223 46.1896C 32.1819 46.0687 32.347 45.8067 32.347 45.5447L 32.3942 26.3986ZM 111.48 5.49906L 111.48 41.0504C 111.48 41.5744 111.15 42.0782 110.607 42.3402L 96.1445 49.4747C 95.6019 49.7367 94.9413 49.7367 94.3986 49.4747L 79.9356 42.3402C 79.393 42.0782 79.0627 41.5744 79.0627 41.0504L 79.0627 26.7815C 79.0627 26.2575 79.393 25.7536 79.9356 25.4916L 94.3986 18.3572C 94.9413 18.0952 95.6019 18.0952 96.1445 18.3572L 99.7544 20.1307C 100.155 20.3323 100.675 20.0703 100.675 19.6873L 100.675 0.742764C 100.675 0.178457 101.382 -0.184311 101.972 0.0978421L 110.584 4.20922C 111.127 4.45107 111.48 4.95491 111.48 5.49906ZM 100.627 31.4773C 100.627 31.3362 100.533 31.2153 100.415 31.1549L 95.4603 28.6961C 95.3187 28.6356 95.1536 28.6356 95.012 28.6961L 90.0574 31.1549C 89.9158 31.2153 89.845 31.3362 89.845 31.4773L 89.845 36.3747C 89.845 36.5158 89.9394 36.6367 90.0574 36.6972L 95.012 39.1358C 95.1536 39.1962 95.3187 39.1962 95.4367 39.1358L 100.391 36.6972C 100.533 36.6367 100.604 36.5158 100.604 36.3747L 100.604 31.4773L 100.627 31.4773ZM 150.127 31.3362C 150.67 31.0742 151 30.5704 151 30.0464L 151 26.6001C 151 26.0761 150.67 25.5723 150.127 25.3103L 135.758 18.1758C 135.216 17.9138 134.555 17.9138 134.012 18.1758L 119.55 25.3103C 119.007 25.5723 118.677 26.0761 118.677 26.6001L 118.677 40.869C 118.677 41.4131 119.007 41.8968 119.55 42.1588L 133.918 49.1522C 134.437 49.4142 135.098 49.4142 135.64 49.1522L 144.323 45.0207C 144.913 44.7385 144.913 44.013 144.323 43.7308L 129.766 36.5964C 129.482 36.4553 129.317 36.2135 129.317 35.9515L 129.317 31.4773C 129.317 31.2153 129.482 30.9735 129.766 30.8324L 134.296 28.5953C 134.555 28.4542 134.909 28.4542 135.169 28.5953L 139.699 30.8324C 139.958 30.9735 140.147 31.2153 140.147 31.4773L 140.147 34.9841C 140.147 35.5484 140.878 35.9112 141.468 35.629L 150.127 31.3362ZM 131.889 32.0416C 131.795 32.1021 131.724 32.1827 131.724 32.2835L 131.724 35.0244C 131.724 35.1252 131.795 35.2259 131.889 35.2662L 134.673 36.6367C 134.768 36.6972 134.909 36.6972 135.003 36.6367L 137.788 35.2662C 137.882 35.2058 137.953 35.1252 137.953 35.0244L 137.953 32.2835C 137.953 32.1827 137.882 32.0819 137.788 32.0416L 135.003 30.6712C 134.909 30.6107 134.768 30.6107 134.673 30.6712L 131.889 32.0416ZM 71.9137 40.8085L 71.9137 26.6203C 71.9137 26.0963 71.5362 25.5924 70.9936 25.3304L 56.5778 18.2363C 56.0823 17.9944 55.3981 17.9541 54.8319 18.2363L 40.4161 25.3304C 39.8734 25.5924 39.4959 26.0761 39.4959 26.6203L 39.4959 40.8085C 39.4959 41.3728 39.9442 41.8565 40.4397 42.0984L 54.8791 49.1925C 55.4453 49.4747 56.1059 49.4545 56.625 49.1925L 71.0172 42.0984C 71.4419 41.8968 71.7486 41.5542 71.8666 41.1511C 71.8902 41.0504 71.9137 40.9295 71.9137 40.8085ZM 54.3836 15.6364L 54.1948 15.7372L 54.4544 15.7372L 54.3836 15.6364ZM 72.362 41.8767L 72.2677 41.7356L 72.2677 41.917L 72.362 41.8767Z"/>
</defs>
</svg>
