<svg width="59" height="59" viewBox="0 0 59 59" version="1.1" xmlns="http://www.w3.org/2000/svg" xmlns:xlink="http://www.w3.org/1999/xlink">
<title>pinterest-square</title>
<desc>Created using Figma</desc>
<g id="Canvas" transform="translate(1869 8258)">
<g id="pinterest-square">
<g id="Vector">
<use xlink:href="#path0_fill" transform="translate(-1869 -8258)" fill="#FBFEF9"/>
</g>
</g>
</g>
<defs>
<path id="path0_fill" d="M 59 6.32143L 59 52.6786C 59 56.1685 56.1685 59 52.6786 59L 20.3339 59C 21.6246 56.8402 23.2839 53.7321 23.9424 51.1904C 24.3375 49.6759 25.9574 43.4993 25.9574 43.4993C 27.0109 45.5143 30.0926 47.2132 33.3719 47.2132C 43.1306 47.2132 50.15 38.2446 50.15 27.1031C 50.15 16.4225 41.4317 8.42857 30.2112 8.42857C 16.2513 8.42857 8.85 17.7922 8.85 27.9987C 8.85 32.7397 11.3786 38.6397 15.4085 40.523C 16.0275 40.8127 16.3435 40.681 16.4884 40.0884C 16.5938 39.6406 17.1469 37.4413 17.3839 36.4272C 17.4629 36.098 17.4234 35.8214 17.16 35.5054C 15.8299 33.8855 14.75 30.9092 14.75 28.1304C 14.75 20.9924 20.1496 14.0915 29.3551 14.0915C 37.2964 14.0915 42.8672 19.5042 42.8672 27.248C 42.8672 35.9926 38.4554 42.0507 32.7002 42.0507C 29.5263 42.0507 27.1558 39.4299 27.9065 36.2033C 28.8152 32.3578 30.5799 28.2094 30.5799 25.4306C 30.5799 18.4507 20.6368 19.4121 20.6368 28.723C 20.6368 31.5808 21.5982 33.5299 21.5982 33.5299C 17.4629 51.0192 16.844 51.2431 17.7 58.8946L 17.9897 59L 6.32143 59C 2.83147 59 0 56.1685 0 52.6786L 0 6.32143C 0 2.83147 2.83147 0 6.32143 0L 52.6786 0C 56.1685 0 59 2.83147 59 6.32143Z"/>
</defs>
</svg>
