<svg width="67" height="72" viewBox="0 0 67 72" version="1.1" xmlns="http://www.w3.org/2000/svg" xmlns:xlink="http://www.w3.org/1999/xlink">
<title>if_Ruby_on_Rails_2_282804</title>
<desc>Created using Figma</desc>
<g id="Canvas" transform="translate(1847 8840)">
<g id="if_Ruby_on_Rails_2_282804">
<g id="layer7">
<g id="path3993">
<use xlink:href="#path0_fill" transform="translate(-1843.2 -8780.39)" fill="#0C6291"/>
</g>
<g id="path3997">
<use xlink:href="#path1_fill" transform="translate(-1828.13 -8780.34)" fill="#0C6291"/>
</g>
<g id="rect4001">
<use xlink:href="#path2_fill" transform="translate(-1813.01 -8780.33)" fill="#0C6291"/>
</g>
<g id="path4003">
<use xlink:href="#path3_fill" transform="translate(-1804.96 -8780.22)" fill="#0C6291"/>
</g>
<g id="path4005">
<use xlink:href="#path4_fill" transform="translate(-1793.58 -8780.33)" fill="#0C6291"/>
</g>
</g>
<g id="layer6">
<g id="path3966">
<use xlink:href="#path5_fill" transform="translate(-1839.92 -8836.72)" fill="#0C6291"/>
</g>
<g id="path3968">
<use xlink:href="#path6_fill" transform="translate(-1847 -8797.95)" fill="#0C6291"/>
</g>
<g id="path3970">
<use xlink:href="#path7_fill" transform="translate(-1841.96 -8815.46)" fill="#0C6291"/>
</g>
<g id="path3972">
<use xlink:href="#path8_fill" transform="translate(-1832.62 -8829.3)" fill="#0C6291"/>
</g>
<g id="path3974">
<use xlink:href="#path9_fill" transform="translate(-1819.46 -8838.32)" fill="#0C6291"/>
</g>
<g id="path3976">
<use xlink:href="#path10_fill" transform="translate(-1805.08 -8840)" fill="#0C6291"/>
</g>
<g id="path3978">
<use xlink:href="#path11_fill" transform="translate(-1788.11 -8836.75)" fill="#0C6291"/>
</g>
<g id="path3980">
<use xlink:href="#path12_fill" transform="translate(-1788.73 -8828.67)" fill="#0C6291"/>
</g>
<g id="path3982">
<use xlink:href="#path13_fill" transform="translate(-1799.3 -8828.04)" fill="#0C6291"/>
</g>
<g id="path3984">
<use xlink:href="#path14_fill" transform="translate(-1806.92 -8824.06)" fill="#0C6291"/>
</g>
<g id="path3986">
<use xlink:href="#path15_fill" transform="translate(-1810.86 -8815.36)" fill="#0C6291"/>
</g>
<g id="path3988">
<use xlink:href="#path16_fill" transform="translate(-1811.23 -8805.81)" fill="#0C6291"/>
</g>
<g id="path3990">
<use xlink:href="#path17_fill" transform="translate(-1809.5 -8792.81)" fill="#0C6291"/>
</g>
</g>
</g>
</g>
<defs>
<path id="path0_fill" d="M -3.67448e-06 0L -3.67448e-06 12.3874L 3.70372 12.3874L 3.70372 9.16112L 7.07445 12.0365L 12.7573 12.0365L 8.24965 8.19125C 8.24965 8.19125 11.4924 8.14631 11.7376 4.14591C 11.7376 0.475576 8.49109 0 4.74159 0L -3.67448e-06 0ZM 3.87994 3.36006L 7.07445 3.36006L 7.07445 5.56675L 3.87994 5.56675L 3.87994 3.36006Z"/>
<path id="path1_fill" d="M 4.84067 0.000393565C 2.81259 -0.00977059 0 0.150716 0 3.41074L 0 12.0203L 3.80156 12.0203L 3.80156 9.91366L 7.48584 9.91366L 7.48584 11.97L 11.3075 11.97L 11.3075 2.94265C 11.3075 0.111129 7.61941 0.000393565 5.644 0.000393565C 5.39692 0.000393565 5.1304 0.00199843 4.84067 0.000393565ZM 3.8605 3.10956L 7.42751 3.10956L 7.42751 6.50332L 3.8605 6.50332L 3.8605 3.10956Z"/>
<path id="path2_fill" d="M 3.93325 4.70176e-06L 6.88965e-06 4.70176e-06L 6.88965e-06 11.8503L 3.93325 11.8503L 3.93325 4.70176e-06Z"/>
<path id="path3_fill" d="M 9.0331e-06 0.0524338L 9.0331e-06 11.9028L 9.46563 11.9028L 9.46563 8.7567L 3.87242 8.7567L 3.87242 -3.91813e-06L 9.0331e-06 0.0524338Z"/>
<path id="path4_fill" d="M 10.6339 0.0534796L 10.6339 3.25198L 4.30261 3.25198L 4.30261 4.40535C 4.30261 4.40535 5.59384 4.40535 7.00673 4.40535C 8.41961 4.40535 11.3708 4.35294 11.3708 8.12865C 11.3708 11.9038 9.34271 12.1135 5.22447 12.1135C 1.1056 12.1135 0.245833 12.1135 0.245833 12.1135L 0.245833 9.22906C 0.245833 9.22906 4.24115 9.22906 5.96195 9.22906C 7.68274 9.22906 7.77806 8.75081 7.77806 8.33462C 7.77806 7.91842 6.89823 7.72424 5.10845 7.72424C 3.31868 7.72424 6.27724e-06 6.97423 6.27724e-06 4.03786C 6.27724e-06 1.10149 1.7208 -2.8733e-06 5.16302 -2.8733e-06C 8.60523 -2.8733e-06 10.6339 0.0534796 10.6339 0.0534796Z"/>
<path id="path5_fill" d="M 0.17522 52.8239L 32.8766 52.8239C 32.8766 52.8239 25.6234 38.7712 27.4671 25.8723C 29.3114 12.9735 41.236 7.10022 47.9975 6.47111C 54.7584 5.84146 58.4471 9.40749 58.4471 9.40749L 59.9226 7.51963C 59.9226 7.51963 50.2106 -0.870079 37.9167 0.0741178C 25.6228 1.01778 17.1405 7.93903 11.8545 16.3287C 6.56799 24.719 3.49452 30.5912 1.40498 39.4003C -0.684551 48.2094 0.17522 52.8239 0.17522 52.8239Z"/>
<path id="path6_fill" d="M 0.737485 -6.53022e-06L 7.13026 0.419397L 6.0234 5.8722L 5.05241e-06 5.24311L 0.737485 -6.53022e-06Z"/>
<path id="path7_fill" d="M 5.77759 5.97759L 7.49901 1.88786L 1.84371 6.26901e-06L 1.53103e-06 4.4043L 5.77759 5.97759Z"/>
<path id="path8_fill" d="M 4.42552 5.76736L 7.74482 2.41212L 3.44221 2.48148e-06L 7.96138e-06 3.25039L 4.42552 5.76736Z"/>
<path id="path9_fill" d="M -7.34896e-06 1.78301L 2.95056 4.82423L 7.00734 2.83151L 4.05679 -6.0078e-06L -7.34896e-06 1.78301Z"/>
<path id="path10_fill" d="M 0 1.30604e-06L 0.73748 3.04176L 5.7782 2.9369L 5.28591 0.210242L 0 1.30604e-06Z"/>
<path id="path11_fill" d="M 0.122909 -9.14231e-07L 5.66483e-06 1.88733L 3.44221 3.46009L 4.17969 2.51644L 0.122909 -9.14231e-07Z"/>
<path id="path12_fill" d="M -5.66483e-06 -2.61209e-07L -5.66483e-06 1.57277L 3.3193 1.88733L 3.3193 0.628566L -5.66483e-06 -2.61209e-07Z"/>
<path id="path13_fill" d="M -6.73655e-06 0.734496L 1.59788 3.25093L 3.93387 1.67816L 3.44222 -6.79143e-06L -6.73655e-06 0.734496Z"/>
<path id="path14_fill" d="M 2.58181 3.52632e-06L 5.04073 3.14607L 3.56514 5.34795L 8.72689e-06 1.99272L 2.58181 3.52632e-06Z"/>
<path id="path15_fill" d="M 1.5985 -2.35088e-06L 6.73655e-06 2.72668L 4.17969 5.76842L 5.16302 2.30727L 1.5985 -2.35088e-06Z"/>
<path id="path16_fill" d="M 0.245825 -8.09748e-06L -1.22483e-06 3.67034L 5.16301 5.55819L 4.91718 2.09703L 0.245825 -8.09748e-06Z"/>
<path id="path17_fill" d="M -8.72689e-06 3.13451e-06L 1.22978 3.77571L 7.74482 4.09027L 5.40883 3.13451e-06L -8.72689e-06 3.13451e-06Z"/>
</defs>
</svg>
