<svg width="69" height="68" viewBox="0 0 69 68" version="1.1" xmlns="http://www.w3.org/2000/svg" xmlns:xlink="http://www.w3.org/1999/xlink">
<title>react</title>
<desc>Created using Figma</desc>
<g id="Canvas" transform="translate(1982 8726)">
<g id="react">
<g id="Vector">
<use xlink:href="#path0_fill" transform="translate(-1982 -8726)" fill="#0C6291"/>
</g>
</g>
</g>
<defs>
<path id="path0_fill" d="M 56.359 22.0362C 55.6313 21.763 54.9035 21.505 54.1758 21.2621C 54.2971 20.7006 54.4049 20.139 54.5127 19.5774C 56.1703 10.5315 55.0787 3.26132 51.3996 0.863235C 47.8553 -1.42861 42.0738 0.954301 36.225 6.69149C 35.6455 7.25307 35.0795 7.845 34.5404 8.43694C 34.1766 8.04232 33.7992 7.64769 33.4219 7.26825C 27.29 1.13643 21.1447 -1.44378 17.4656 0.969479C 13.9348 3.2765 12.8836 10.1217 14.366 18.6819C 14.5143 19.5319 14.676 20.3667 14.8646 21.2166C 14.0021 21.4898 13.1531 21.7934 12.358 22.1121C 5.16152 24.92 0 29.3519 0 33.9356C 0 38.671 5.49844 43.4217 12.9779 46.3055C 13.5844 46.5331 14.1908 46.7608 14.8107 46.9581C 14.6086 47.8688 14.4334 48.7642 14.2717 49.6901C 12.8566 58.1137 13.9617 64.792 17.4926 67.0838C 21.1313 69.4515 27.2496 67.0231 33.2062 61.1493C 33.6779 60.6788 34.1496 60.1931 34.6213 59.6771C 35.2143 60.3297 35.8342 60.952 36.4541 61.5591C 42.2221 67.1445 47.9227 69.406 51.44 67.1142C 55.0787 64.7464 56.2646 57.5673 54.7283 48.825C 54.607 48.1571 54.4723 47.4741 54.324 46.776C 54.7553 46.6394 55.173 46.4876 55.5908 46.3358C 63.3668 43.4369 69 38.7469 69 33.9356C 69 29.3367 63.6902 24.8745 56.359 22.0362ZM 38.1252 9.15029C 43.1385 4.2327 47.8148 2.30512 49.9441 3.6863C 52.2217 5.15854 53.0977 11.1082 51.6691 18.9248C 51.5748 19.4408 51.4805 19.9417 51.3592 20.4425C 48.3674 19.6837 45.3352 19.1373 42.2895 18.8337C 40.5375 16.0106 38.6238 13.309 36.5484 10.7743C 37.074 10.2127 37.5861 9.68151 38.1252 9.15029ZM 20.6057 37.8514C 21.2256 39.1871 21.859 40.5075 22.5328 41.8128C 23.2201 43.1333 23.9209 44.4538 24.6621 45.7439C 22.5598 45.4858 20.4709 45.1064 18.409 44.6055C 19.002 42.4199 19.7432 40.1585 20.6057 37.8514ZM 20.6057 30.1715C 19.7566 27.91 19.0424 25.694 18.4494 23.554C 20.39 23.0683 22.452 22.6737 24.5947 22.3701C 23.8805 23.6299 23.1797 24.92 22.5193 26.2253C 21.859 27.5154 21.2121 28.8358 20.6057 30.1715ZM 22.142 34.0115C 23.0314 31.9169 24.0018 29.8679 25.026 27.8493C 26.0502 25.8307 27.1553 23.8727 28.3143 21.9451C 30.3357 21.7782 32.3977 21.6871 34.5 21.6871C 36.6023 21.6871 38.6777 21.7782 40.6857 21.9451C 41.8312 23.8575 42.9229 25.8155 43.9605 27.8189C 44.9982 29.8224 45.9686 31.8714 46.885 33.9508C 45.982 36.0453 45.0117 38.1095 43.974 40.1433C 42.9498 42.1619 41.8582 44.1199 40.7127 46.0626C 38.7047 46.2296 36.6158 46.3055 34.5 46.3055C 32.3842 46.3055 30.3357 46.2296 28.3547 46.093C 27.1822 44.1654 26.0771 42.1923 25.0395 40.1736C 24.0018 38.155 23.0449 36.106 22.142 34.0115ZM 46.4807 41.7825C 47.168 40.4468 47.8148 39.096 48.4482 37.73C 49.3107 39.9308 50.0654 42.1619 50.7258 44.4538C 48.6369 44.985 46.5211 45.3948 44.3918 45.668C 45.1195 44.3931 45.8068 43.0878 46.4807 41.7825ZM 48.4213 30.1715C 47.7879 28.8358 47.141 27.5002 46.4672 26.1949C 45.8068 24.9048 45.1195 23.6299 44.4053 22.3701C 46.575 22.6737 48.6504 23.0835 50.591 23.5843C 49.9711 25.8306 49.2434 28.0162 48.4213 30.1715ZM 34.527 13.0965C 35.942 14.8268 37.2762 16.6481 38.516 18.5301C 35.8477 18.3935 33.1658 18.3935 30.4975 18.5301C 31.8182 16.5722 33.1793 14.7509 34.527 13.0965ZM 18.8941 3.79254C 21.1582 2.30512 26.185 4.43001 31.4813 9.71187C 31.8182 10.0458 32.1551 10.41 32.5055 10.7743C 30.4166 13.309 28.4895 16.0106 26.724 18.8337C 23.6783 19.1373 20.6596 19.6685 17.6678 20.4122C 17.4926 19.6381 17.3443 18.8489 17.1961 18.0596C 15.9293 10.7136 16.7648 5.17372 18.8941 3.79254ZM 15.5924 43.8011C 15.0264 43.619 14.4738 43.4217 13.9213 43.2092C 11.0508 42.1923 7.78945 40.5834 5.43105 38.4737C 4.06992 37.4113 3.15352 35.7721 2.89746 33.9356C 2.89746 31.158 7.15605 27.6064 13.3014 25.1932C 14.0695 24.8896 14.8512 24.6164 15.6328 24.3584C 16.5492 27.652 17.6543 30.8848 18.9346 34.0115C 17.6408 37.1836 16.5223 40.462 15.5924 43.8011ZM 31.3061 58.6753C 29.0824 60.9672 26.5084 62.7885 23.7053 64.0331C 22.2094 64.8375 20.4844 64.9134 18.948 64.2304C 16.8053 62.834 15.9158 57.4763 17.1287 50.2668C 17.277 49.4169 17.4387 48.5669 17.6273 47.7322C 20.6461 48.4607 23.6918 48.9616 26.7779 49.2196C 28.5568 52.0578 30.5109 54.7746 32.5998 57.3245C 32.1686 57.795 31.7373 58.2503 31.3061 58.6753ZM 34.6078 54.9871C 33.2332 53.3176 31.8586 51.4659 30.5244 49.4776C 31.8182 49.5383 33.1523 49.5687 34.5 49.5687C 35.8881 49.5687 37.2492 49.5383 38.5969 49.4624C 37.357 51.39 36.0229 53.2265 34.6078 54.9871ZM 52.2217 59.5405C 52.1004 61.3921 51.2918 63.1224 49.998 64.2911C 47.8553 65.6875 43.2867 63.8661 38.3543 59.1003C 37.7883 58.5539 37.2223 57.962 36.6428 57.3549C 38.7047 54.7898 40.6049 52.073 42.3299 49.2196C 45.416 48.9312 48.4887 48.4 51.5209 47.6259C 51.6557 48.2482 51.777 48.8705 51.8848 49.4776C 52.5451 52.756 52.6529 56.171 52.2217 59.5405ZM 54.6744 43.2244C 54.2971 43.361 53.9197 43.4976 53.5289 43.619C 52.5855 40.3102 51.4266 37.0774 50.0924 33.9356C 51.3861 30.8393 52.4777 27.652 53.3941 24.3888C 54.0949 24.6164 54.7688 24.8593 55.4156 25.1021C 61.6957 27.5306 66.1025 31.1429 66.1025 33.9052C 66.1025 36.8801 61.3992 40.72 54.6744 43.2244ZM 34.5 27.0449C 37.9096 27.0449 40.6723 30.1563 40.6723 33.9963C 40.6723 37.8363 37.9096 40.9477 34.5 40.9477C 31.0904 40.9477 28.3277 37.8363 28.3277 33.9963C 28.3277 30.1563 31.0904 27.0449 34.5 27.0449Z"/>
</defs>
</svg>
