<svg width="68" height="71" viewBox="0 0 68 71" version="1.1" xmlns="http://www.w3.org/2000/svg" xmlns:xlink="http://www.w3.org/1999/xlink">
<title>icons8-ruby-programming-language</title>
<desc>Created using Figma</desc>
<g id="Canvas" transform="translate(1944 8839)">
<g id="icons8-ruby-programming-language">
<g id="surface1">
<g id="Vector">
<use xlink:href="#path0_fill" transform="translate(-1944 -8839)" fill="#0C6291"/>
</g>
</g>
</g>
</g>
<defs>
<path id="path0_fill" d="M 37.601 0.0090665C 37.347 0.0574243 37.1045 0.172274 36.9082 0.347571L 23.3307 5.57021C 23.1459 5.63066 22.9728 5.72737 22.8227 5.86036L 9.42983 18.9653C 9.32014 19.062 9.22778 19.1769 9.15273 19.3038L 0.378116 35.0684C 0.326162 35.147 0.279979 35.2256 0.23957 35.3102L 0.193387 35.4069C 0.176069 35.4251 0.164524 35.4372 0.147205 35.4553C 0.147205 35.4855 0.147205 35.5218 0.147205 35.552C 0.129887 35.5822 0.112569 35.6185 0.101023 35.6487C 0.0837043 35.6669 0.0721595 35.679 0.0548408 35.6971C 0.0548408 35.7152 0.0548408 35.7273 0.0548408 35.7455C 0.0375221 35.7757 0.0202049 35.8119 0.00865861 35.8422C 0.00865861 35.8603 0.00865861 35.8724 0.00865861 35.8905C 0.00865861 35.9207 0.00865861 35.957 0.00865861 35.9872C 0.00865861 36.0054 0.00865861 36.0175 0.00865861 36.0356C 0.00865861 36.0658 0.00865861 36.1021 0.00865861 36.1323C 0.00865861 36.1504 0.00865861 36.1625 0.00865861 36.1807C -0.0028862 36.2774 -0.0028862 36.3741 0.00865861 36.4708L 0.00865861 55.6205C 0.0028862 55.687 0.0028862 55.7474 0.00865861 55.8139L 0.00865861 55.8623C 0.0028862 56.0074 0.0202049 56.1585 0.0548408 56.2975C 0.355025 63.0374 2.98164 66.9846 6.15089 68.9189C 9.16428 70.7625 12.397 70.9378 14.4175 70.9983C 14.5734 71.0043 14.787 70.9922 14.9255 70.9983L 15.0641 70.9983C 15.1449 70.9862 15.2199 70.9741 15.295 70.9499L 15.3411 70.9499L 62.6779 67.5649C 62.7876 67.577 62.8915 67.577 63.0012 67.5649C 63.1628 67.5407 63.3187 67.4923 63.463 67.4198C 63.5611 67.3654 63.6535 67.2989 63.7401 67.2264C 63.7574 67.2264 63.769 67.2264 63.7863 67.2264C 64.2365 66.8637 64.4559 66.2652 64.3405 65.6789L 67.8503 17.3211C 67.8561 17.2909 67.8445 17.2547 67.8503 17.2244L 67.9888 15.3868C 68.0119 15.1753 68.0004 14.9637 67.9427 14.7582C 67.9427 13.1866 67.8041 11.627 67.4347 10.1158C 66.2974 5.48558 62.8742 1.49002 56.4895 0.299213C 56.3971 0.275034 56.3048 0.2569 56.2124 0.250855C 56.1835 0.250855 56.1489 0.250855 56.12 0.250855L 38.0628 0.0090665C 37.9531 -0.00302217 37.8492 -0.00302217 37.7395 0.0090665C 37.6933 0.0090665 37.6471 0.0090665 37.601 0.0090665ZM 42.8196 3.15232L 50.532 3.24904L 46.2832 5.71528L 42.8196 3.15232ZM 37.8319 3.29739L 44.5745 8.27824L 39.7715 24.2847L 21.6219 41.9836L 6.79744 45.4654L 3.14905 36.2774L 11.6004 21.0447L 24.6238 8.37496L 37.8319 3.29739ZM 56.3048 3.44247C 61.5118 4.52447 63.6824 7.28691 64.5714 10.8896C 65.3161 13.918 64.8716 17.5448 64.0634 20.8996L 48.7771 7.79467L 56.3048 3.44247ZM 47.0683 10.3093L 61.0153 22.302L 43.0966 23.5593L 47.0683 10.3093ZM 62.7703 25.2518C 59.6818 33.9925 54.3016 41.4214 48.1767 48.4152L 42.9119 26.6058L 62.7703 25.2518ZM 40.2333 28.0566L 45.3596 49.4791L 25.2241 42.6606L 40.2333 28.0566ZM 63.8786 30.813L 61.5695 62.7291L 49.6083 51.5584C 55.1848 45.3082 60.3399 38.5925 63.8786 30.813ZM 2.96432 43.9663L 4.3036 47.2062L 2.96432 49.7692L 2.96432 43.9663ZM 23.423 45.3203L 44.4359 52.3805C 36.6023 59.7611 27.9662 65.5882 17.0961 67.3231L 23.423 45.3203ZM 20.2826 45.4654L 14.6946 64.9052L 7.952 48.3668L 20.2826 45.4654ZM 5.73525 50.8331L 12.6164 67.7099C 10.9885 67.5407 9.22201 67.184 7.62872 66.2108C 5.25611 64.7601 3.25296 62.0883 3.0105 56.0557L 5.73525 50.8331ZM 47.4378 53.7345L 59.3066 64.7601L 29.5653 66.8395C 36.2732 63.6237 42.0749 58.9028 47.4378 53.7345Z"/>
</defs>
</svg>
