<svg width="73" height="70" viewBox="0 0 73 70" version="1.1" xmlns="http://www.w3.org/2000/svg" xmlns:xlink="http://www.w3.org/1999/xlink">
<title>sql-file-format-symbol</title>
<desc>Created using Figma</desc>
<g id="Canvas" transform="translate(2078 8726)">
<g id="sql-file-format-symbol">
<g id="Group">
<g id="Vector">
<use xlink:href="#path0_fill" transform="translate(-2078 -8726)" fill="#0C6291"/>
</g>
<g id="Vector">
<use xlink:href="#path1_fill" transform="translate(-2060.39 -8698.28)" fill="#0C6291"/>
</g>
<g id="Vector">
<use xlink:href="#path2_fill" transform="translate(-2031.34 -8700.31)" fill="#0C6291"/>
</g>
</g>
</g>
</g>
<defs>
<path id="path0_fill" d="M 44.847 63.9569C 44.9465 63.9619 45.047 63.9706 45.149 63.9706L 68.1261 63.9706C 70.8132 63.9706 73 61.9537 73 59.4751L 73 10.3467C 73 7.86852 70.8132 5.85129 68.1261 5.85129L 45.149 5.85129C 45.0477 5.85129 44.9465 5.8595 44.847 5.86485L 44.847 0L 1.57397e-08 5.52044L 1.57397e-08 64.3369L 44.847 70L 44.847 63.9569ZM 44.847 8.44769C 44.9465 8.43425 45.0456 8.4201 45.149 8.4201L 68.1261 8.4201C 69.2779 8.4201 70.2148 9.28434 70.2148 10.3467L 70.2148 59.4751C 70.2148 60.5376 69.2778 61.4018 68.1261 61.4018L 45.149 61.4018C 45.0463 61.4018 44.9465 61.3867 44.847 61.373L 44.847 8.44769ZM 7.23971 39.2012C 5.7248 39.1642 4.24521 38.7396 3.51116 38.3151L 4.10815 35.883C 4.90371 36.3025 6.13547 36.731 7.41816 36.7511C 8.81213 36.7735 9.55559 36.2117 9.55559 35.3406C 9.55559 34.5103 8.91231 34.0311 7.29979 33.4519C 5.09957 32.6843 3.68523 31.4814 3.68523 29.5824C 3.68523 27.3542 5.54995 25.6041 8.69234 25.5275C 10.2205 25.4896 11.3574 25.7812 12.175 26.1224L 11.4801 28.5883C 10.9294 28.3358 9.95801 27.9743 8.63213 27.995C 7.31849 28.0147 6.68746 28.6127 6.68746 29.298C 6.68746 30.14 7.43815 30.5074 9.17342 31.1485C 11.5805 32.0152 12.7279 33.254 12.7279 35.1556C 12.7287 37.4159 10.9497 39.2922 7.23971 39.2012ZM 27.4263 41.9294C 25.2575 41.274 23.4726 40.6187 21.4933 39.7789C 21.1652 39.6473 20.8158 39.577 20.4691 39.5475C 17.2049 39.2634 14.2202 36.9392 14.2202 32.5137C 14.2202 28.4504 16.9071 25.3273 21.2302 25.2219C 25.7971 25.1108 28.3612 28.3425 28.3612 32.2264C 28.3612 35.4566 26.7445 37.7081 24.7415 38.5058L 24.7415 38.5898C 25.9082 38.9279 27.2223 39.2095 28.431 39.4691L 27.4263 41.9294ZM 40.7919 39.8071L 30.6744 39.5657L 30.6744 25.2265L 34.2741 25.1409L 34.2741 36.8953L 40.7919 36.9931L 40.7919 39.8071Z"/>
<path id="path1_fill" d="M 3.53466 0.000458087C 1.28298 0.0364928 0.000289611 2.13185 0.000289611 4.69686C -0.0225327 7.30241 1.30439 9.31797 3.51158 9.35448C 5.77589 9.39088 7.11119 7.38828 7.11119 4.63609C 7.11119 2.07156 5.82076 -0.0356955 3.53466 0.000458087Z"/>
<path id="path2_fill" d="M 9.62806 20.9623C 15.0323 20.9623 19.2617 19.1811 19.2617 16.9077L 19.2617 14.3495C 19.2617 13.9857 19.1474 13.6163 18.9175 13.2546L 18.9081 13.2401C 19.1325 12.8921 19.2617 12.5258 19.2617 12.1438L 19.2617 9.5857C 19.2617 9.2219 19.1474 8.85252 18.9175 8.48967L 18.8877 8.44353C 19.1258 8.08508 19.2617 7.70761 19.2617 7.31254L 19.2617 4.75467C 19.2617 4.40848 19.1576 4.05598 18.9503 3.70729L 18.9264 3.66685C 18.9877 3.5113 19.0305 3.35206 19.0305 3.18342C 19.0305 1.116 14.1865 6.38764e-07 9.62806 6.38764e-07C 5.07365 6.38764e-07 0.231061 1.116 0.231061 3.18342C 0.231061 3.35206 0.273867 3.51201 0.335758 3.66757L 0.311389 3.708C 0.10328 4.05669 -1.95172e-06 4.40919 -1.95172e-06 4.75539L -1.95172e-06 7.31325C -1.95172e-06 7.70714 0.134613 8.0852 0.372636 8.4427L 0.341302 8.49169C 0.114239 8.85513 0.000127901 9.22333 0.000127901 9.58701L 0.000127901 12.1445C 0.000127901 12.5258 0.127136 12.8914 0.352265 13.2395L 0.341302 13.2559C 0.114239 13.6184 0.000127901 13.9876 0.000127901 14.3495L 0.000127901 16.9083C -0.000129979 19.1811 4.22909 20.9623 9.62806 20.9623ZM 1.03061 5.18317C 2.57544 6.39098 6.15881 7.01665 9.62806 7.01665C 13.1026 7.01665 16.6833 6.39038 18.2301 5.18245L 18.2301 7.31195C 18.2301 8.7795 14.6998 10.4149 9.62806 10.4149C 4.56099 10.4149 1.03061 8.7795 1.03061 7.31195L 1.03061 5.18317ZM 1.03061 9.73757C 2.61219 11.0728 5.86508 11.9256 9.62806 11.9256C 13.3963 11.9256 16.6492 11.0726 18.2301 9.73626L 18.2301 12.1438C 18.2301 13.6114 14.6998 15.2469 9.62806 15.2469C 4.56099 15.2469 1.03061 13.6114 1.03061 12.1438L 1.03061 9.73757ZM 1.03061 14.5014C 2.61219 15.8372 5.86508 16.6901 9.62806 16.6901C 13.3963 16.6901 16.6492 15.8372 18.2301 14.5007L 18.2301 16.9083C 18.2301 18.3759 14.6998 20.0109 9.62806 20.0109C 4.56099 20.0109 1.03061 18.3759 1.03061 16.9083L 1.03061 14.5014Z"/>
</defs>
</svg>
