<svg width="59" height="55" viewBox="0 0 59 55" version="1.1" xmlns="http://www.w3.org/2000/svg" xmlns:xlink="http://www.w3.org/1999/xlink">
<title>twitter-square</title>
<desc>Created using Figma</desc>
<g id="Canvas" transform="translate(1972 8347)">
<g id="twitter-square">
<g id="Vector">
<use xlink:href="#path0_fill" transform="translate(-1972 -8347)" fill="#FBFEF9"/>
</g>
</g>
</g>
<defs>
<path id="path0_fill" d="M 52.6786 0L 6.32143 0C 2.83147 0 0 2.63951 0 5.89286L 0 49.1071C 0 52.3605 2.83147 55 6.32143 55L 52.6786 55C 56.1685 55 59 52.3605 59 49.1071L 59 5.89286C 59 2.63951 56.1685 0 52.6786 0ZM 46.2386 19.4955C 46.265 19.8393 46.265 20.1953 46.265 20.5391C 46.265 31.183 37.573 43.4475 21.6904 43.4475C 16.7913 43.4475 12.2478 42.1217 8.42857 39.8382C 9.12656 39.9118 9.79821 39.9364 10.5094 39.9364C 14.5525 39.9364 18.2663 38.6596 21.2295 36.4989C 17.4366 36.4252 14.2496 34.1049 13.1565 30.9129C 14.4866 31.0971 15.685 31.0971 17.0547 30.7656C 13.1038 30.0167 10.1406 26.7757 10.1406 22.8594L 10.1406 22.7612C 11.2864 23.3627 12.6297 23.731 14.0388 23.7801C 12.8541 23.0455 11.8829 22.049 11.2119 20.8793C 10.5409 19.7097 10.191 18.4034 10.1933 17.077C 10.1933 15.5792 10.6147 14.2042 11.3654 13.0134C 15.6192 17.8996 22.0065 21.0915 29.1708 21.4353C 27.946 15.9721 32.3315 11.5402 37.5993 11.5402C 40.0884 11.5402 42.3272 12.51 43.9076 14.0815C 45.8567 13.7377 47.7268 13.0625 49.3862 12.1417C 48.7408 14.0078 47.3844 15.5792 45.5933 16.5737C 47.3317 16.4018 49.0174 15.9475 50.5714 15.3214C 49.3993 16.9297 47.9243 18.3538 46.2386 19.4955Z"/>
</defs>
</svg>
